<?xml version="1.0" encoding="UTF-8" standalone="no"?>
<!DOCTYPE svg PUBLIC "-//W3C//DTD SVG 1.1//EN"
 "http://www.w3.org/Graphics/SVG/1.1/DTD/svg11.dtd">
<!-- Generated by graphviz version 2.40.1 (20161225.0304)
 -->
<!-- Title: G Pages: 1 -->
<svg width="1976pt" height="1450pt"
 viewBox="0.00 0.00 1976.00 1449.50" xmlns="http://www.w3.org/2000/svg" xmlns:xlink="http://www.w3.org/1999/xlink">
<g id="graph0" class="graph" transform="scale(1 1) rotate(0) translate(36 1413.5)">
<title>G</title>
<polygon fill="#f7f7f7" stroke="transparent" points="-36,36 -36,-1413.5 1940,-1413.5 1940,36 -36,36"/>
<!-- appmarks -->
<g id="node1" class="node">
<title>appmarks</title>
<polygon fill="none" stroke="#000000" points="204,-972.5 21,-972.5 21,-787.5 204,-787.5 204,-972.5"/>
<polygon fill="#d3d3d3" stroke="transparent" points="21.5,-935 21.5,-972 204.5,-972 204.5,-935 21.5,-935"/>
<polygon fill="none" stroke="#000000" points="21.5,-935 21.5,-972 204.5,-972 204.5,-935 21.5,-935"/>
<text text-anchor="start" x="91.5" y="-949.8" font-family="Helvetica Neue" font-size="14.00" fill="#333333">Marks</text>
<polygon fill="#ffffff" stroke="transparent" points="21.5,-898 21.5,-935 204.5,-935 204.5,-898 21.5,-898"/>
<polygon fill="none" stroke="#000000" points="21.5,-898 21.5,-935 204.5,-935 204.5,-898 21.5,-898"/>
<text text-anchor="start" x="32.5" y="-912.8" font-family="Helvetica Neue" font-size="14.00" fill="#333333">id (bigint)</text>
<polygon fill="#ffffff" stroke="transparent" points="21.5,-861 21.5,-898 204.5,-898 204.5,-861 21.5,-861"/>
<polygon fill="none" stroke="#000000" points="21.5,-861 21.5,-898 204.5,-898 204.5,-861 21.5,-861"/>
<text text-anchor="start" x="32.5" y="-875.8" font-family="Helvetica Neue" font-size="14.00" fill="#333333">project_id (bigint)</text>
<polygon fill="#ffffff" stroke="transparent" points="21.5,-824 21.5,-861 204.5,-861 204.5,-824 21.5,-824"/>
<polygon fill="none" stroke="#000000" points="21.5,-824 21.5,-861 204.5,-861 204.5,-824 21.5,-824"/>
<text text-anchor="start" x="32.5" y="-838.8" font-family="Helvetica Neue" font-size="14.00" fill="#333333">created_at (datetime)</text>
<polygon fill="#ffffff" stroke="transparent" points="21.5,-787 21.5,-824 204.5,-824 204.5,-787 21.5,-787"/>
<polygon fill="none" stroke="#000000" points="21.5,-787 21.5,-824 204.5,-824 204.5,-787 21.5,-787"/>
<text text-anchor="start" x="32.5" y="-801.8" font-family="Helvetica Neue" font-size="14.00" fill="#333333">updated_at (datetime)</text>
</g>
<!-- appproject -->
<g id="node2" class="node">
<title>appproject</title>
<polygon fill="none" stroke="#000000" points="474,-967 374,-967 374,-867 474,-867 474,-967"/>
<polygon fill="#d3d3d3" stroke="transparent" points="374,-930 374,-967 474,-967 474,-930 374,-930"/>
<polygon fill="none" stroke="#000000" points="374,-930 374,-967 474,-967 474,-930 374,-930"/>
<text text-anchor="start" x="399.5" y="-944.8" font-family="Helvetica Neue" font-size="14.00" fill="#333333">Project</text>
</g>
<!-- appmarks&#45;&gt;appproject -->
<g id="edge1" class="edge">
<title>appmarks:id&#45;&gt;appproject:marks_id</title>
<path fill="none" stroke="#d62828" stroke-width="1.8" d="M204.5,-917C204.5,-917 303.8882,-917 368.908,-917"/>
<polygon fill="#d62828" stroke="#d62828" stroke-width="1.8" points="372.9173,-912 372.9175,-922 370.9175,-922.0001 370.9173,-912.0001 372.9173,-912"/>
<polyline fill="none" stroke="#d62828" stroke-width="1.8" points="373.9174,-917 368.9174,-917.0001 "/>
<text text-anchor="middle" x="299.5" y="-920.8" font-family="Helvetica Neue" font-size="14.00" fill="#000000"> </text>
<text text-anchor="middle" x="257.704" y="-905.8" font-family="Helvetica Neue" font-size="14.00" fill="#000000">HasOne</text>
<text text-anchor="middle" x="257.704" y="-890.8" font-family="Helvetica Neue" font-size="14.00" fill="#000000">projects</text>
</g>
<!-- appstudent -->
<g id="node7" class="node">
<title>appstudent</title>
<polygon fill="none" stroke="#000000" points="723,-631 623,-631 623,-531 723,-531 723,-631"/>
<polygon fill="#d3d3d3" stroke="transparent" points="623,-594 623,-631 723,-631 723,-594 623,-594"/>
<polygon fill="none" stroke="#000000" points="623,-594 623,-631 723,-631 723,-594 623,-594"/>
<text text-anchor="start" x="645" y="-608.8" font-family="Helvetica Neue" font-size="14.00" fill="#333333">Student</text>
</g>
<!-- appproject&#45;&gt;appstudent -->
<g id="edge8" class="edge">
<title>appproject:id&#45;&gt;appstudent:project_id</title>
<path fill="none" stroke="#fcbf49" stroke-width="1.8" d="M461.2778,-866.6974C506.3322,-805.9011 582.0121,-703.7788 629.635,-639.5166"/>
<polygon fill="#fcbf49" stroke="#fcbf49" stroke-width="1.8" points="629.9205,-639.1313 639.49,-633.7763 632.8975,-635.1141 635.8746,-631.097 635.8746,-631.097 635.8746,-631.097 632.8975,-635.1141 632.2591,-628.4177 629.9205,-639.1313 629.9205,-639.1313"/>
<text text-anchor="middle" x="548.5" y="-752.8" font-family="Helvetica Neue" font-size="14.00" fill="#000000"> </text>
<text text-anchor="middle" x="512.4564" y="-741.907" font-family="Helvetica Neue" font-size="14.00" fill="#000000">HasMany</text>
<text text-anchor="middle" x="512.4564" y="-726.907" font-family="Helvetica Neue" font-size="14.00" fill="#000000">students</text>
</g>
<!-- project_supervisor -->
<g id="node8" class="node">
<title>project_supervisor</title>
<polygon fill="none" stroke="#000000" points="895,-1181 795,-1181 795,-1081 895,-1081 895,-1181"/>
<polygon fill="#d3d3d3" stroke="transparent" points="795,-1144 795,-1181 895,-1181 895,-1144 795,-1144"/>
<polygon fill="none" stroke="#000000" points="795,-1144 795,-1181 895,-1181 895,-1144 795,-1144"/>
<text text-anchor="start" x="827.5" y="-1158.8" font-family="Helvetica Neue" font-size="14.00" fill="#333333">Pivot</text>
</g>
<!-- appproject&#45;&gt;project_supervisor -->
<g id="edge6" class="edge">
<title>appproject:id&#45;&gt;project_supervisor:project_id</title>
<path fill="none" stroke="#003049" stroke-width="1.8" d="M473.6221,-967.0288C507.3984,-1001.082 546,-1040 546,-1040 546,-1040 697.902,-1086.2311 785.1653,-1112.7894"/>
<polygon fill="#003049" stroke="#003049" stroke-width="1.8" points="784.3683,-1116.2053 794.9541,-1115.7686 786.4065,-1109.5086 784.3683,-1116.2053"/>
<text text-anchor="middle" x="548.5" y="-1044.8" font-family="Helvetica Neue" font-size="14.00" fill="#000000"> </text>
<text text-anchor="middle" x="672.42" y="-1050.2322" font-family="Helvetica Neue" font-size="14.00" fill="#000000">BelongsToMany</text>
<text text-anchor="middle" x="672.42" y="-1035.2322" font-family="Helvetica Neue" font-size="14.00" fill="#000000">supervisors</text>
</g>
<!-- appscheme -->
<g id="node9" class="node">
<title>appscheme</title>
<polygon fill="none" stroke="#000000" points="1150,-875.5 967,-875.5 967,-616.5 1150,-616.5 1150,-875.5"/>
<polygon fill="#d3d3d3" stroke="transparent" points="967.5,-838 967.5,-875 1150.5,-875 1150.5,-838 967.5,-838"/>
<polygon fill="none" stroke="#000000" points="967.5,-838 967.5,-875 1150.5,-875 1150.5,-838 967.5,-838"/>
<text text-anchor="start" x="1030" y="-852.8" font-family="Helvetica Neue" font-size="14.00" fill="#333333">Scheme</text>
<polygon fill="#ffffff" stroke="transparent" points="967.5,-801 967.5,-838 1150.5,-838 1150.5,-801 967.5,-801"/>
<polygon fill="none" stroke="#000000" points="967.5,-801 967.5,-838 1150.5,-838 1150.5,-801 967.5,-801"/>
<text text-anchor="start" x="978.5" y="-815.8" font-family="Helvetica Neue" font-size="14.00" fill="#333333">id (bigint)</text>
<polygon fill="#ffffff" stroke="transparent" points="967.5,-764 967.5,-801 1150.5,-801 1150.5,-764 967.5,-764"/>
<polygon fill="none" stroke="#000000" points="967.5,-764 967.5,-801 1150.5,-801 1150.5,-764 967.5,-764"/>
<text text-anchor="start" x="978.5" y="-778.8" font-family="Helvetica Neue" font-size="14.00" fill="#333333">project_name (string)</text>
<polygon fill="#ffffff" stroke="transparent" points="967.5,-727 967.5,-764 1150.5,-764 1150.5,-727 967.5,-727"/>
<polygon fill="none" stroke="#000000" points="967.5,-727 967.5,-764 1150.5,-764 1150.5,-727 967.5,-727"/>
<text text-anchor="start" x="978.5" y="-741.8" font-family="Helvetica Neue" font-size="14.00" fill="#333333">project_year (date)</text>
<polygon fill="#ffffff" stroke="transparent" points="967.5,-690 967.5,-727 1150.5,-727 1150.5,-690 967.5,-690"/>
<polygon fill="none" stroke="#000000" points="967.5,-690 967.5,-727 1150.5,-727 1150.5,-690 967.5,-690"/>
<text text-anchor="start" x="978.5" y="-704.8" font-family="Helvetica Neue" font-size="14.00" fill="#333333">student_id (bigint)</text>
<polygon fill="#ffffff" stroke="transparent" points="967.5,-653 967.5,-690 1150.5,-690 1150.5,-653 967.5,-653"/>
<polygon fill="none" stroke="#000000" points="967.5,-653 967.5,-690 1150.5,-690 1150.5,-653 967.5,-653"/>
<text text-anchor="start" x="978.5" y="-667.8" font-family="Helvetica Neue" font-size="14.00" fill="#333333">created_at (datetime)</text>
<polygon fill="#ffffff" stroke="transparent" points="967.5,-616 967.5,-653 1150.5,-653 1150.5,-616 967.5,-616"/>
<polygon fill="none" stroke="#000000" points="967.5,-616 967.5,-653 1150.5,-653 1150.5,-616 967.5,-616"/>
<text text-anchor="start" x="978.5" y="-630.8" font-family="Helvetica Neue" font-size="14.00" fill="#333333">updated_at (datetime)</text>
</g>
<!-- appproject&#45;&gt;appscheme -->
<g id="edge9" class="edge">
<title>appproject:id&#45;&gt;appscheme:project_id</title>
<path fill="none" stroke="#fcbf49" stroke-width="1.8" d="M474.4053,-904.2649C595.9104,-873.5662 895,-798 895,-798 895,-798 923.5329,-788.9253 956.7595,-778.3578"/>
<polygon fill="#fcbf49" stroke="#fcbf49" stroke-width="1.8" points="957.1838,-778.2229 968.0774,-779.4804 961.9487,-776.7075 966.7135,-775.192 966.7135,-775.192 966.7135,-775.192 961.9487,-776.7075 965.3496,-770.9037 957.1838,-778.2229 957.1838,-778.2229"/>
<text text-anchor="middle" x="673" y="-868.8" font-family="Helvetica Neue" font-size="14.00" fill="#000000"> </text>
<text text-anchor="middle" x="683.1193" y="-831.9949" font-family="Helvetica Neue" font-size="14.00" fill="#000000">HasMany</text>
<text text-anchor="middle" x="683.1193" y="-816.9949" font-family="Helvetica Neue" font-size="14.00" fill="#000000">schemes</text>
</g>
<!-- appmodule -->
<g id="node3" class="node">
<title>appmodule</title>
<polygon fill="none" stroke="#000000" points="1399,-261 1299,-261 1299,-161 1399,-161 1399,-261"/>
<polygon fill="#d3d3d3" stroke="transparent" points="1299,-224 1299,-261 1399,-261 1399,-224 1299,-224"/>
<polygon fill="none" stroke="#000000" points="1299,-224 1299,-261 1399,-261 1399,-224 1299,-224"/>
<text text-anchor="start" x="1323" y="-238.8" font-family="Helvetica Neue" font-size="14.00" fill="#333333">Module</text>
</g>
<!-- appassignment -->
<g id="node4" class="node">
<title>appassignment</title>
<polygon fill="none" stroke="#000000" points="1655,-398 1548,-398 1548,-298 1655,-298 1655,-398"/>
<polygon fill="#d3d3d3" stroke="transparent" points="1548.5,-361 1548.5,-398 1655.5,-398 1655.5,-361 1548.5,-361"/>
<polygon fill="none" stroke="#000000" points="1548.5,-361 1548.5,-398 1655.5,-398 1655.5,-361 1548.5,-361"/>
<text text-anchor="start" x="1559.5" y="-375.8" font-family="Helvetica Neue" font-size="14.00" fill="#333333">Assignment</text>
</g>
<!-- appmodule&#45;&gt;appassignment -->
<g id="edge2" class="edge">
<title>appmodule:id&#45;&gt;appassignment:module_id</title>
<path fill="none" stroke="#fcbf49" stroke-width="1.8" d="M1399.1878,-238.2306C1439.3348,-260.0133 1495.842,-290.6727 1538.9365,-314.0546"/>
<polygon fill="#fcbf49" stroke="#fcbf49" stroke-width="1.8" points="1539.1285,-314.1588 1545.772,-322.8831 1543.5233,-316.5433 1547.9181,-318.9278 1547.9181,-318.9278 1547.9181,-318.9278 1543.5233,-316.5433 1550.0641,-314.9725 1539.1285,-314.1588 1539.1285,-314.1588"/>
<text text-anchor="middle" x="1473.5" y="-283.8" font-family="Helvetica Neue" font-size="14.00" fill="#000000"> </text>
<text text-anchor="middle" x="1514.5621" y="-264.9426" font-family="Helvetica Neue" font-size="14.00" fill="#000000">HasMany</text>
<text text-anchor="middle" x="1514.5621" y="-249.9426" font-family="Helvetica Neue" font-size="14.00" fill="#000000">assignments</text>
</g>
<!-- module_supervisor -->
<g id="node5" class="node">
<title>module_supervisor</title>
<polygon fill="none" stroke="#000000" points="1651.5,-226 1551.5,-226 1551.5,-126 1651.5,-126 1651.5,-226"/>
<polygon fill="#d3d3d3" stroke="transparent" points="1551.5,-189 1551.5,-226 1651.5,-226 1651.5,-189 1551.5,-189"/>
<polygon fill="none" stroke="#000000" points="1551.5,-189 1551.5,-226 1651.5,-226 1651.5,-189 1551.5,-189"/>
<text text-anchor="start" x="1584" y="-203.8" font-family="Helvetica Neue" font-size="14.00" fill="#333333">Pivot</text>
</g>
<!-- appmodule&#45;&gt;module_supervisor -->
<g id="edge3" class="edge">
<title>appmodule:id&#45;&gt;module_supervisor:module_id</title>
<path fill="none" stroke="#003049" stroke-width="1.8" d="M1399.1878,-204.0433C1440.064,-198.3773 1497.9001,-190.3604 1541.2713,-184.3485"/>
<polygon fill="#003049" stroke="#003049" stroke-width="1.8" points="1541.9825,-187.7835 1551.4072,-182.9436 1541.0214,-180.8498 1541.9825,-187.7835"/>
<text text-anchor="middle" x="1473.5" y="-197.8" font-family="Helvetica Neue" font-size="14.00" fill="#000000"> </text>
<text text-anchor="middle" x="1414.2295" y="-182.9959" font-family="Helvetica Neue" font-size="14.00" fill="#000000">BelongsToMany</text>
<text text-anchor="middle" x="1414.2295" y="-167.9959" font-family="Helvetica Neue" font-size="14.00" fill="#000000">supervisors</text>
</g>
<!-- appmodule&#45;&gt;appstudent -->
<g id="edge5" class="edge">
<title>appmodule:id&#45;&gt;appstudent:module_id</title>
<path fill="none" stroke="#fcbf49" stroke-width="1.8" d="M1298.6674,-215.7434C1194.9378,-225.5189 967,-247 967,-247 967,-247 795,-388 795,-388 795,-388 746.0394,-465.4541 710.1508,-522.2286"/>
<polygon fill="#fcbf49" stroke="#fcbf49" stroke-width="1.8" points="710.0789,-522.3425 700.9318,-528.3909 707.4072,-526.5689 704.7356,-530.7953 704.7356,-530.7953 704.7356,-530.7953 707.4072,-526.5689 708.5394,-533.1998 710.0789,-522.3425 710.0789,-522.3425"/>
<text text-anchor="middle" x="1058.5" y="-250.8" font-family="Helvetica Neue" font-size="14.00" fill="#000000"> </text>
<text text-anchor="middle" x="915.4132" y="-251.0369" font-family="Helvetica Neue" font-size="14.00" fill="#000000">HasMany</text>
<text text-anchor="middle" x="915.4132" y="-236.0369" font-family="Helvetica Neue" font-size="14.00" fill="#000000">students</text>
</g>
<!-- appsupervisor -->
<g id="node6" class="node">
<title>appsupervisor</title>
<polygon fill="none" stroke="#000000" points="1904,-869 1804,-869 1804,-769 1904,-769 1904,-869"/>
<polygon fill="#d3d3d3" stroke="transparent" points="1804,-832 1804,-869 1904,-869 1904,-832 1804,-832"/>
<polygon fill="none" stroke="#000000" points="1804,-832 1804,-869 1904,-869 1904,-832 1804,-832"/>
<text text-anchor="start" x="1815.5" y="-846.8" font-family="Helvetica Neue" font-size="14.00" fill="#333333">Supervisor</text>
</g>
<!-- module_supervisor&#45;&gt;appsupervisor -->
<g id="edge4" class="edge">
<title>module_supervisor:supervisor_id&#45;&gt;appsupervisor:id</title>
<path fill="none" stroke="#003049" stroke-width="1.8" d="M1632.6212,-226.0266C1644.3908,-244.9459 1655,-262 1655,-262 1655,-262 1732,-437 1732,-437 1732,-437 1800.456,-651.3458 1834.8105,-758.9149"/>
<polygon fill="#003049" stroke="#003049" stroke-width="1.8" points="1831.5487,-760.2062 1837.9252,-768.6674 1838.2169,-758.0765 1831.5487,-760.2062"/>
<text text-anchor="middle" x="1729.5" y="-440.8" font-family="Helvetica Neue" font-size="14.00" fill="#000000"> </text>
<text text-anchor="middle" x="1691.8774" y="-475.5144" font-family="Helvetica Neue" font-size="14.00" fill="#000000">BelongsToMany</text>
<text text-anchor="middle" x="1691.8774" y="-460.5144" font-family="Helvetica Neue" font-size="14.00" fill="#000000">supervisors</text>
</g>
<!-- appsupervisor&#45;&gt;appproject -->
<g id="edge19" class="edge">
<title>appsupervisor:id&#45;&gt;appproject:supervisor_id</title>
<path fill="none" stroke="#fcbf49" stroke-width="1.8" d="M1826.7472,-869.2603C1772.2461,-969.7723 1655,-1186 1655,-1186 1655,-1186 1601.5,-1277 1601.5,-1277 673,-1277 673,-1277 673,-1277 673,-1277 534.9138,-1077.3573 464.4042,-975.4157"/>
<polygon fill="#fcbf49" stroke="#fcbf49" stroke-width="1.8" points="464.311,-975.2809 462.3234,-964.4966 461.4667,-971.1687 458.6224,-967.0565 458.6224,-967.0565 458.6224,-967.0565 461.4667,-971.1687 454.9214,-969.6163 464.311,-975.2809 464.311,-975.2809"/>
<text text-anchor="middle" x="1224.5" y="-1280.8" font-family="Helvetica Neue" font-size="14.00" fill="#000000"> </text>
<text text-anchor="middle" x="1153.8367" y="-1265.8" font-family="Helvetica Neue" font-size="14.00" fill="#000000">HasMany</text>
<text text-anchor="middle" x="1153.8367" y="-1250.8" font-family="Helvetica Neue" font-size="14.00" fill="#000000">projects</text>
</g>
<!-- appsupervisor&#45;&gt;appstudent -->
<g id="edge18" class="edge">
<title>appsupervisor:id&#45;&gt;appstudent:supervisor_id</title>
<path fill="none" stroke="#fcbf49" stroke-width="1.8" d="M1813.4315,-768.8718C1742.0556,-680.6766 1601.5,-507 1601.5,-507 1058.5,-507 1058.5,-507 1058.5,-507 1058.5,-507 841.5327,-548.6487 733.1418,-569.4553"/>
<polygon fill="#fcbf49" stroke="#fcbf49" stroke-width="1.8" points="732.8229,-569.5164 722.1538,-566.9823 727.9125,-570.459 723.0022,-571.4017 723.0022,-571.4017 723.0022,-571.4017 727.9125,-570.459 723.8505,-575.821 732.8229,-569.5164 732.8229,-569.5164"/>
<text text-anchor="middle" x="1349" y="-510.8" font-family="Helvetica Neue" font-size="14.00" fill="#000000"> </text>
<text text-anchor="middle" x="1299.7935" y="-495.8" font-family="Helvetica Neue" font-size="14.00" fill="#000000">HasMany</text>
<text text-anchor="middle" x="1299.7935" y="-480.8" font-family="Helvetica Neue" font-size="14.00" fill="#000000">students</text>
</g>
<!-- appstudent&#45;&gt;appscheme -->
<g id="edge15" class="edge">
<title>appstudent:id&#45;&gt;appscheme:student_id</title>
<path fill="none" stroke="#d62828" stroke-width="1.8" d="M723.0979,-599.7303C788.5745,-624.2103 895,-664 895,-664 895,-664 947.574,-695.907 963.1819,-705.3794"/>
<polygon fill="#d62828" stroke="#d62828" stroke-width="1.8" points="969.2393,-703.2067 964.0509,-711.7556 962.3412,-710.7179 967.5295,-702.1691 969.2393,-703.2067"/>
<polyline fill="none" stroke="#d62828" stroke-width="1.8" points="967.5,-708 963.2256,-705.4058 "/>
<text text-anchor="middle" x="845" y="-667.8" font-family="Helvetica Neue" font-size="14.00" fill="#000000"> </text>
<text text-anchor="middle" x="814.4017" y="-634.6304" font-family="Helvetica Neue" font-size="14.00" fill="#000000">HasOne</text>
<text text-anchor="middle" x="814.4017" y="-619.6304" font-family="Helvetica Neue" font-size="14.00" fill="#000000">schemes</text>
</g>
<!-- module_student -->
<g id="node12" class="node">
<title>module_student</title>
<polygon fill="none" stroke="#000000" points="1108.5,-398 1008.5,-398 1008.5,-298 1108.5,-298 1108.5,-398"/>
<polygon fill="#d3d3d3" stroke="transparent" points="1008.5,-361 1008.5,-398 1108.5,-398 1108.5,-361 1008.5,-361"/>
<polygon fill="none" stroke="#000000" points="1008.5,-361 1008.5,-398 1108.5,-398 1108.5,-361 1008.5,-361"/>
<text text-anchor="start" x="1041" y="-375.8" font-family="Helvetica Neue" font-size="14.00" fill="#333333">Pivot</text>
</g>
<!-- appstudent&#45;&gt;module_student -->
<g id="edge16" class="edge">
<title>appstudent:id&#45;&gt;module_student:student_id</title>
<path fill="none" stroke="#003049" stroke-width="1.8" d="M715.6697,-530.6358C750.851,-489.1104 795,-437 795,-437 795,-437 920.8683,-394.4866 998.619,-368.2255"/>
<polygon fill="#003049" stroke="#003049" stroke-width="1.8" points="999.9633,-371.4657 1008.3174,-364.9497 997.7232,-364.8338 999.9633,-371.4657"/>
<text text-anchor="middle" x="845" y="-440.8" font-family="Helvetica Neue" font-size="14.00" fill="#000000"> </text>
<text text-anchor="middle" x="782.6745" y="-411.0485" font-family="Helvetica Neue" font-size="14.00" fill="#000000">BelongsToMany</text>
<text text-anchor="middle" x="782.6745" y="-396.0485" font-family="Helvetica Neue" font-size="14.00" fill="#000000">modules</text>
</g>
<!-- project_supervisor&#45;&gt;appsupervisor -->
<g id="edge7" class="edge">
<title>project_supervisor:supervisor_id&#45;&gt;appsupervisor:id</title>
<path fill="none" stroke="#003049" stroke-width="1.8" d="M895.0032,-1131C998.0539,-1131 1224.5,-1131 1224.5,-1131 1224.5,-1131 1224.5,-1131 1601.5,-1131 1601.5,-1131 1733.9406,-967.3507 1806.9854,-877.0933"/>
<polygon fill="#003049" stroke="#003049" stroke-width="1.8" points="1809.8612,-879.1034 1813.4315,-869.1282 1804.4199,-874.6997 1809.8612,-879.1034"/>
<text text-anchor="middle" x="1349" y="-1134.8" font-family="Helvetica Neue" font-size="14.00" fill="#000000"> </text>
<text text-anchor="middle" x="1355.571" y="-1119.8" font-family="Helvetica Neue" font-size="14.00" fill="#000000">BelongsToMany</text>
<text text-anchor="middle" x="1355.571" y="-1104.8" font-family="Helvetica Neue" font-size="14.00" fill="#000000">supervisors</text>
</g>
<!-- appscheme&#45;&gt;appstudent -->
<g id="edge10" class="edge">
<title>appscheme:id&#45;&gt;appstudent:scheme_id</title>
<path fill="none" stroke="#fcbf49" stroke-width="1.8" d="M967.5,-820C967.5,-820 795,-697 795,-697 795,-697 762.3736,-665.9782 730.8654,-636.0196"/>
<polygon fill="#fcbf49" stroke="#fcbf49" stroke-width="1.8" points="730.5735,-635.742 726.4272,-625.5902 726.95,-632.2967 723.3264,-628.8514 723.3264,-628.8514 723.3264,-628.8514 726.95,-632.2967 720.2256,-632.1125 730.5735,-635.742 730.5735,-635.742"/>
<text text-anchor="middle" x="845" y="-768.8" font-family="Helvetica Neue" font-size="14.00" fill="#000000"> </text>
<text text-anchor="middle" x="812.222" y="-721.6105" font-family="Helvetica Neue" font-size="14.00" fill="#000000">HasMany</text>
<text text-anchor="middle" x="812.222" y="-706.6105" font-family="Helvetica Neue" font-size="14.00" fill="#000000">students</text>
</g>
<!-- project_scheme -->
<g id="node10" class="node">
<title>project_scheme</title>
<polygon fill="none" stroke="#000000" points="1399,-955 1299,-955 1299,-855 1399,-855 1399,-955"/>
<polygon fill="#d3d3d3" stroke="transparent" points="1299,-918 1299,-955 1399,-955 1399,-918 1299,-918"/>
<polygon fill="none" stroke="#000000" points="1299,-918 1299,-955 1399,-955 1399,-918 1299,-918"/>
<text text-anchor="start" x="1331.5" y="-932.8" font-family="Helvetica Neue" font-size="14.00" fill="#333333">Pivot</text>
</g>
<!-- appscheme&#45;&gt;project_scheme -->
<g id="edge11" class="edge">
<title>appscheme:id&#45;&gt;project_scheme:scheme_id</title>
<path fill="none" stroke="#003049" stroke-width="1.8" d="M1150,-820C1150,-820 1230.9399,-854.5723 1289.5798,-879.6195"/>
<polygon fill="#003049" stroke="#003049" stroke-width="1.8" points="1288.2128,-882.8415 1298.7839,-883.5509 1290.9625,-876.4041 1288.2128,-882.8415"/>
<text text-anchor="middle" x="1224.5" y="-855.8" font-family="Helvetica Neue" font-size="14.00" fill="#000000"> </text>
<text text-anchor="middle" x="1275.7899" y="-838.6098" font-family="Helvetica Neue" font-size="14.00" fill="#000000">BelongsToMany</text>
<text text-anchor="middle" x="1275.7899" y="-823.6098" font-family="Helvetica Neue" font-size="14.00" fill="#000000">projects</text>
</g>
<!-- project_scheme&#45;&gt;appproject -->
<g id="edge12" class="edge">
<title>project_scheme:project_id&#45;&gt;appproject:id</title>
<path fill="none" stroke="#003049" stroke-width="1.8" d="M1298.7792,-907.2656C1123.7195,-915.163 551,-941 551,-941 551,-941 546,-941 546,-941 546,-941 515.0047,-934.9026 484.26,-928.8544"/>
<polygon fill="#003049" stroke="#003049" stroke-width="1.8" points="484.814,-925.3964 474.3264,-926.9003 483.4628,-932.2648 484.814,-925.3964"/>
<text text-anchor="middle" x="845" y="-932.8" font-family="Helvetica Neue" font-size="14.00" fill="#000000"> </text>
<text text-anchor="middle" x="834.9625" y="-914.4633" font-family="Helvetica Neue" font-size="14.00" fill="#000000">BelongsToMany</text>
<text text-anchor="middle" x="834.9625" y="-899.4633" font-family="Helvetica Neue" font-size="14.00" fill="#000000">projects</text>
</g>
<!-- appstaff -->
<g id="node11" class="node">
<title>appstaff</title>
<polygon fill="none" stroke="#000000" points="162.5,-471 62.5,-471 62.5,-371 162.5,-371 162.5,-471"/>
<polygon fill="#d3d3d3" stroke="transparent" points="62.5,-434 62.5,-471 162.5,-471 162.5,-434 62.5,-434"/>
<polygon fill="none" stroke="#000000" points="62.5,-434 62.5,-471 162.5,-471 162.5,-434 62.5,-434"/>
<text text-anchor="start" x="95.5" y="-448.8" font-family="Helvetica Neue" font-size="14.00" fill="#333333">Staff</text>
</g>
<!-- appstaff&#45;&gt;appproject -->
<g id="edge14" class="edge">
<title>appstaff:id&#45;&gt;appproject:staff_id</title>
<path fill="none" stroke="#fcbf49" stroke-width="1.8" d="M144.0825,-471.2887C202.1121,-563.6889 325.3984,-759.9971 387.1466,-858.3185"/>
<polygon fill="#fcbf49" stroke="#fcbf49" stroke-width="1.8" points="387.2474,-858.479 388.755,-869.3408 389.9066,-862.7132 392.5658,-866.9475 392.5658,-866.9475 392.5658,-866.9475 389.9066,-862.7132 396.3766,-864.5542 387.2474,-858.479 387.2474,-858.479"/>
<text text-anchor="middle" x="299.5" y="-723.8" font-family="Helvetica Neue" font-size="14.00" fill="#000000"> </text>
<text text-anchor="middle" x="232.6145" y="-653.6036" font-family="Helvetica Neue" font-size="14.00" fill="#000000">HasMany</text>
<text text-anchor="middle" x="232.6145" y="-638.6036" font-family="Helvetica Neue" font-size="14.00" fill="#000000">projects</text>
</g>
<!-- appstaff&#45;&gt;appmodule -->
<g id="edge13" class="edge">
<title>appstaff:id&#45;&gt;appmodule:staff_id</title>
<path fill="none" stroke="#fcbf49" stroke-width="1.8" d="M152.5855,-370.684C236.7167,-265.0812 424,-30 424,-30 424,-30 424,-30 1058.5,-30 1058.5,-30 1205.3272,-121.4827 1290.2123,-174.3715"/>
<polygon fill="#fcbf49" stroke="#fcbf49" stroke-width="1.8" points="1290.243,-174.3906 1296.3507,-183.4982 1294.4867,-177.0347 1298.7304,-179.6788 1298.7304,-179.6788 1298.7304,-179.6788 1294.4867,-177.0347 1301.1101,-175.8595 1290.243,-174.3906 1290.243,-174.3906"/>
<text text-anchor="middle" x="673" y="-33.8" font-family="Helvetica Neue" font-size="14.00" fill="#000000"> </text>
<text text-anchor="middle" x="626.9635" y="-18.8" font-family="Helvetica Neue" font-size="14.00" fill="#000000">HasMany</text>
<text text-anchor="middle" x="626.9635" y="-3.8" font-family="Helvetica Neue" font-size="14.00" fill="#000000">modules</text>
</g>
<!-- module_student&#45;&gt;appmodule -->
<g id="edge17" class="edge">
<title>module_student:module_id&#45;&gt;appmodule:id</title>
<path fill="none" stroke="#003049" stroke-width="1.8" d="M1108.7696,-324.2928C1159.0173,-300.596 1236.2702,-264.1635 1289.5358,-239.0434"/>
<polygon fill="#003049" stroke="#003049" stroke-width="1.8" points="1291.308,-242.0773 1298.8597,-234.6462 1288.3221,-235.7461 1291.308,-242.0773"/>
<text text-anchor="middle" x="1224.5" y="-273.8" font-family="Helvetica Neue" font-size="14.00" fill="#000000"> </text>
<text text-anchor="middle" x="1143.1527" y="-270.4681" font-family="Helvetica Neue" font-size="14.00" fill="#000000">BelongsToMany</text>
<text text-anchor="middle" x="1143.1527" y="-255.4681" font-family="Helvetica Neue" font-size="14.00" fill="#000000">modules</text>
</g>
<!-- appuser -->
<g id="node13" class="node">
<title>appuser</title>
<polygon fill="none" stroke="#000000" points="225,-1377.5 0,-1377.5 0,-1044.5 225,-1044.5 225,-1377.5"/>
<polygon fill="#d3d3d3" stroke="transparent" points=".5,-1340 .5,-1377 225.5,-1377 225.5,-1340 .5,-1340"/>
<polygon fill="none" stroke="#000000" points=".5,-1340 .5,-1377 225.5,-1377 225.5,-1340 .5,-1340"/>
<text text-anchor="start" x="96" y="-1354.8" font-family="Helvetica Neue" font-size="14.00" fill="#333333">User</text>
<polygon fill="#ffffff" stroke="transparent" points=".5,-1303 .5,-1340 225.5,-1340 225.5,-1303 .5,-1303"/>
<polygon fill="none" stroke="#000000" points=".5,-1303 .5,-1340 225.5,-1340 225.5,-1303 .5,-1303"/>
<text text-anchor="start" x="11.5" y="-1317.8" font-family="Helvetica Neue" font-size="14.00" fill="#333333">id (bigint)</text>
<polygon fill="#ffffff" stroke="transparent" points=".5,-1266 .5,-1303 225.5,-1303 225.5,-1266 .5,-1266"/>
<polygon fill="none" stroke="#000000" points=".5,-1266 .5,-1303 225.5,-1303 225.5,-1266 .5,-1266"/>
<text text-anchor="start" x="11.5" y="-1280.8" font-family="Helvetica Neue" font-size="14.00" fill="#333333">name (string)</text>
<polygon fill="#ffffff" stroke="transparent" points=".5,-1229 .5,-1266 225.5,-1266 225.5,-1229 .5,-1229"/>
<polygon fill="none" stroke="#000000" points=".5,-1229 .5,-1266 225.5,-1266 225.5,-1229 .5,-1229"/>
<text text-anchor="start" x="11.5" y="-1243.8" font-family="Helvetica Neue" font-size="14.00" fill="#333333">email (string)</text>
<polygon fill="#ffffff" stroke="transparent" points=".5,-1192 .5,-1229 225.5,-1229 225.5,-1192 .5,-1192"/>
<polygon fill="none" stroke="#000000" points=".5,-1192 .5,-1229 225.5,-1229 225.5,-1192 .5,-1192"/>
<text text-anchor="start" x="11.5" y="-1206.8" font-family="Helvetica Neue" font-size="14.00" fill="#333333">email_verified_at (datetime)</text>
<polygon fill="#ffffff" stroke="transparent" points=".5,-1155 .5,-1192 225.5,-1192 225.5,-1155 .5,-1155"/>
<polygon fill="none" stroke="#000000" points=".5,-1155 .5,-1192 225.5,-1192 225.5,-1155 .5,-1155"/>
<text text-anchor="start" x="11.5" y="-1169.8" font-family="Helvetica Neue" font-size="14.00" fill="#333333">password (string)</text>
<polygon fill="#ffffff" stroke="transparent" points=".5,-1118 .5,-1155 225.5,-1155 225.5,-1118 .5,-1118"/>
<polygon fill="none" stroke="#000000" points=".5,-1118 .5,-1155 225.5,-1155 225.5,-1118 .5,-1118"/>
<text text-anchor="start" x="11.5" y="-1132.8" font-family="Helvetica Neue" font-size="14.00" fill="#333333">remember_token (string)</text>
<polygon fill="#ffffff" stroke="transparent" points=".5,-1081 .5,-1118 225.5,-1118 225.5,-1081 .5,-1081"/>
<polygon fill="none" stroke="#000000" points=".5,-1081 .5,-1118 225.5,-1118 225.5,-1081 .5,-1081"/>
<text text-anchor="start" x="11.5" y="-1095.8" font-family="Helvetica Neue" font-size="14.00" fill="#333333">created_at (datetime)</text>
<polygon fill="#ffffff" stroke="transparent" points=".5,-1044 .5,-1081 225.5,-1081 225.5,-1044 .5,-1044"/>
<polygon fill="none" stroke="#000000" points=".5,-1044 .5,-1081 225.5,-1081 225.5,-1044 .5,-1044"/>
<text text-anchor="start" x="11.5" y="-1058.8" font-family="Helvetica Neue" font-size="14.00" fill="#333333">updated_at (datetime)</text>
</g>
</g>
</svg>
